#!OML:ASF E:\Steps\Project 1\Capture day 1\Session 2\Subject.ASF
:FULLY-SPECIFIED
:DEGREES
497
root 9.71594 16.3396 1.86828 -156.472 0.460304 176.466
lowerback -19.7361 -0.298074 -7.32024
upperback 2.61234 1.54423 -1.84866
thorax 14.0153 0.165342 2.54201
lowerneck -4.05922 -1.27517 -0.282969
upperneck 20.703 -4.05062 4.15776
head 7.07831 -2.16733 1.03123
rclavicle 4.47266e-015 -1.19271e-014
rhumerus -32.0713 -6.64977 -85.1283
rradius 47.3323
rwrist -7.12667
rhand -6.28449 -53.7007
rfingers 7.12502
rthumb 19.5589 -82.7369
lclavicle 4.47266e-015 -1.19271e-014
lhumerus -34.3047 7.16504 76.6937
lradius 27.9239
lwrist -2.33072
lhand -19.8558 -12.8773
lfingers 7.12502
lthumb 6.47902 17.0036
rfemur -17.4315 8.20884 19.8471
rtibia 11.3931
rfoot -22.9326 -9.15565
rtoes -33.6236
lfemur -77.9809 -3.78848 -23.5818
ltibia 69.5139
lfoot -11.9773 1.06882
ltoes -27.7974
498
root 9.70624 16.35 1.79093 -156.211 0.245503 176.516
lowerback -19.6115 -0.272032 -7.28348
upperback 2.49801 1.5534 -1.9222
thorax 13.8076 0.183545 2.43933
lowerneck -3.89885 -1.30915 0.0888346
upperneck 20.2213 -3.98677 3.87024
head 6.88066 -2.12001 0.887534
rclavicle -2.98177e-015 1.39149e-014
rhumerus -32.4556 -6.82035 -85.166
rradius 47.4357
rwrist -6.89591
rhand -6.4464 -52.8032
rfingers 7.12502
rthumb 19.4032 -81.8551
lclavicle -2.98177e-015 1.39149e-014
lhumerus -34.289 7.31483 76.5188
lradius 28.0774
lwrist -2.71798
lhand -19.6623 -12.602
lfingers 7.12502
lthumb 6.66579 17.2731
rfemur -17.243 8.28338 19.9008
rtibia 11.0823
rfoot -22.6565 -9.3218
rtoes -33.3201
lfemur -78.3416 -4.11216 -23.2777
ltibia 69.9931
lfoot -12.1005 0.902841
ltoes -26.7527
499
root 9.69604 16.3624 1.70999 -155.958 0.14106 176.518
lowerback -19.5681 -0.218018 -7.34954
upperback 2.42152 1.63622 -2.01264
thorax 13.6851 0.223516 2.39883
lowerneck -4.0873 -1.37016 0.180156
upperneck 20.3277 -4.1072 3.95325
head 6.95182 -2.1597 0.886955
rclavicle -8.15017e-015 3.97569e-015
rhumerus -32.7201 -6.99007 -85.194
rradius 47.438
rwrist -7.00811
rhand -6.86755 -52.2138
rfingers 7.12502
rthumb 18.9982 -81.306
lclavicle -8.15017e-015 3.97569e-015
lhumerus -34.088 7.29694 76.4584
lradius 28.0971
lwrist -2.95503
lhand -19.5809 -12.3159
lfingers 7.12502
lthumb 6.74437 17.5567
rfemur -17.079 8.46994 19.8603
rtibia 10.8342
rfoot -22.2335 -9.62603
rtoes -33.3403
lfemur -78.493 -4.30715 -23.2021
ltibia 70.316
lfoot -12.3651 0.982531
ltoes -27.9062
500
root 9.68384 16.3765 1.62826 -155.687 0.158112 176.408
lowerback -19.6033 -0.168843 -7.55246
upperback 2.37682 1.75487 -2.11173
thorax 13.6409 0.265327 2.43717
lowerneck -4.00822 -1.52973 0.0713943
upperneck 20.1896 -4.37198 4.29333
head 6.9088 -2.26964 0.997348
rclavicle -6.16232e-015 -6.24184e-014
rhumerus -32.7986 -7.12381 -85.1573
rradius 47.2814
rwrist -7.17601
rhand -7.13205 -51.5276
rfingers 7.12502
rthumb 18.7438 -80.6446
lclavicle -6.16232e-015 -6.24184e-014
lhumerus -33.8705 7.04971 76.5708
lradius 28.2513
lwrist -2.79242
lhand -19.5337 -12.2269
lfingers 7.12502
lthumb 6.78993 17.6443
rfemur -17.0145 8.57631 19.6671
rtibia 10.6906
rfoot -21.7804 -9.89034
rtoes -34.6909
lfemur -78.4534 -4.44034 -23.358
ltibia 70.4023
lfoot -12.579 0.840144
ltoes -29.7248
501
root 9.67159 16.3971 1.54831 -155.564 0.198518 176.155
lowerback -19.4908 -0.134572 -7.92336
upperback 2.43109 1.8884 -2.22444
thorax 13.6213 0.299113 2.55629
lowerneck -4.33406 -1.71728 -0.0399201
upperneck 20.357 -4.63859 4.34138
head 7.03072 -2.38976 1.00614
rclavicle -1.68967e-014 -3.97569e-016
rhumerus -32.8417 -7.25432 -85.0422
rradius 47.1744
rwrist -7.08891
rhand -7.00017 -50.922
rfingers 7.12502
rthumb 18.8707 -80.0266
lclavicle -1.68967e-014 -3.97569e-016
lhumerus -33.5884 6.81423 76.736
lradius 28.4498
lwrist -2.65138
lhand -19.6738 -12.3827
lfingers 7.12502
lthumb 6.65476 17.4927
rfemur -16.7873 8.62147 19.3163
rtibia 10.4909
rfoot -21.1047 -10.3051
rtoes -35.3261
lfemur -78.0956 -4.63309 -23.6871
ltibia 70.2072
lfoot -12.7059 0.726404
ltoes -31.442
502
root 9.66199 16.4218 1.46839 -155.44 0.181475 176.001
lowerback -19.2805 -0.09447 -8.20862
upperback 2.40266 1.98971 -2.34431
thorax 13.4508 0.332362 2.60768
lowerneck -3.92169 -1.81167 0.227443
upperneck 19.6283 -4.64515 4.19065
head 6.71387 -2.38056 0.926123
rclavicle 8.74653e-015 4.92986e-014
rhumerus -33.1662 -7.41365 -84.977
rradius 47.2185
rwrist -6.84711
rhand -6.63574 -51.2017
rfingers 7.12502
rthumb 19.2211 -80.2719
lclavicle 8.74653e-015 4.92986e-014
lhumerus -33.3503 6.55999 76.7502
lradius 28.544
lwrist -2.68232
lhand -19.8721 -12.6869
lfingers 7.12502
lthumb 6.4633 17.1945
rfemur -16.5774 8.80388 19.1161
rtibia 10.3895
rfoot -20.2152 -10.9881
rtoes -34.4916
lfemur -77.6498 -4.80336 -23.8989
ltibia 69.9771
lfoot -13.0353 0.684824
ltoes -28.812
503
root 9.65337 16.4489 1.3852 -155.243 0.118612 175.968
lowerback -19.1741 -0.0419839 -8.35736
upperback 2.31767 2.08033 -2.47373
thorax 13.2796 0.372515 2.56982
lowerneck -4.22233 -1.86401 0.128352
upperneck 20.0255 -4.83469 4.49775
head 6.90963 -2.45472 1.01867
rclavicle 9.54166e-015 3.18055e-015
rhumerus -33.4699 -7.65062 -85.043
rradius 47.1655
rwrist -6.78576
rhand -6.46795 -52.1333
rfingers 7.12502
rthumb 19.3825 -81.1873
lclavicle 9.54166e-015 3.18055e-015
lhumerus -33.2143 6.06499 76.7209
lradius 28.7134
lwrist -2.39191
lhand -19.9545 -12.9403
lfingers 7.12502
lthumb 6.3837 16.9435
rfemur -16.4006 9.02777 19.0818
rtibia 10.2764
rfoot -19.6201 -11.2986
rtoes -33.7845
lfemur -77.248 -4.9396 -23.964
ltibia 69.8143
lfoot -13.5346 0.435851
ltoes -29.9053
504
root 9.64063 16.4804 1.29884 -155.065 0.203311 175.94
lowerback -19.2034 0.0576125 -8.48942
upperback 2.33253 2.25537 -2.59366
thorax 13.2973 0.443671 2.55993
lowerneck -3.89726 -1.97155 0.183814
upperneck 19.3784 -4.91428 4.66127
head 6.64878 -2.47423 1.0674
rclavicle 3.97569e-015 -4.21423e-014
rhumerus -33.4511 -7.79196 -85.0475
rradius 46.9534
rwrist -6.95791
rhand -6.3815 -52.6922
rfingers 7.12502
rthumb 19.4656 -81.7378
lclavicle 3.97569e-015 -4.21423e-014
lhumerus -32.9038 5.71951 76.7874
lradius 28.8235
lwrist -2.0667
lhand -20.101 -12.9511
lfingers 7.12502
lthumb 6.24228 16.9369
rfemur -16.2096 8.93679 19.028
rtibia 10.0955
rfoot -19.0552 -11.1165
rtoes -34.6311
lfemur -76.7836 -4.97189 -24.057
ltibia 69.6392
lfoot -14.1598 0.132453
ltoes -22.3708
505
root 9.6256 16.5157 1.21648 -154.873 0.394604 175.934
lowerback -19.2239 0.155992 -8.60174
upperback 2.35198 2.42436 -2.73011
thorax 13.3174 0.513518 2.51808
lowerneck -4.05902 -2.05843 0.12167
upperneck 19.2823 -5.0628 4.95511
head 6.65944 -2.52013 1.15933
rclavicle -2.98177e-015 -1.59028e-015
rhumerus -33.3623 -7.66607 -85.0597
rradius 46.6111
rwrist -7.07632
rhand -6.13917 -52.5535
rfingers 7.12502
rthumb 19.6986 -81.5754
lclavicle -2.98177e-015 -1.59028e-015
lhumerus -32.5175 5.71305 76.7264
lradius 28.7891
lwrist -2.01243
lhand -20.3715 -13.0302
lfingers 7.12502
lthumb 5.98113 16.8654
rfemur -16.2409 8.70916 18.943
rtibia 10.2242
rfoot -18.4362 -10.7674
rtoes -35.2643
lfemur -76.3297 -4.92001 -24.1502
ltibia 69.3598
lfoot -14.6596 -0.0196681
ltoes -21.7489
506
root 9.61254 16.554 1.13642 -154.663 0.550693 175.942
lowerback -19.2584 0.222042 -8.7347
upperback 2.36787 2.55484 -2.85513
thorax 13.3444 0.563113 2.48946
lowerneck -3.61855 -2.11616 0.295227
upperneck 18.3235 -5.0475 5.18367
head 6.27805 -2.48566 1.21969
rclavicle 1.19271e-014 -1.66979e-014
rhumerus -33.3295 -7.37034 -85.1472
rradius 46.2614
rwrist -7.20123
rhand -6.16046 -52.2347
rfingers 7.12502
rthumb 19.6781 -81.2587
lclavicle 1.19271e-014 -1.66979e-014
lhumerus -32.1803 5.93104 76.5739
lradius 28.7816
lwrist -2.14335
lhand -20.5025 -13.2393
lfingers 7.12502
lthumb 5.85468 16.6598
rfemur -16.2914 8.76442 18.828
rtibia 10.3448
rfoot -17.645 -10.5351
rtoes -33.6061
lfemur -75.9511 -4.92799 -24.1624
ltibia 69.038
lfoot -14.9829 -0.0584385
ltoes -20.7617
507
root 9.59815 16.5963 1.05199 -154.493 0.630976 175.963
lowerback -19.3763 0.265314 -8.85723
upperback 2.43501 2.66488 -2.9027
thorax 13.48 0.597326 2.53849
lowerneck -3.63994 -2.18161 0.328084
upperneck 18.2743 -5.13217 5.19691
head 6.26831 -2.52061 1.21297
rclavicle 4.57205e-015 5.48646e-014
rhumerus -33.2644 -7.04491 -85.15
rradius 45.9322
rwrist -7.18541
rhand -6.46457 -51.8701
rfingers 7.12502
rthumb 19.3857 -80.9238
lclavicle 4.57205e-015 5.48646e-014
lhumerus -31.7948 6.41582 76.5229
lradius 28.8011
lwrist -2.46525
lhand -20.435 -13.5499
lfingers 7.12502
lthumb 5.91988 16.3474
rfemur -16.1146 9.08681 18.6951
rtibia 10.2269
rfoot -16.838 -10.4348
rtoes -31.5442
lfemur -75.497 -5.06431 -24.0812
ltibia 68.6365
lfoot -15.2317 -0.0634855
ltoes -20.0354
508
root 9.58025 16.6427 0.967114 -154.362 0.587373 175.979
lowerback -19.4162 0.254488 -8.91585
upperback 2.48577 2.67625 -2.94062
thorax 13.5625 0.593864 2.53192
lowerneck -4.25825 -2.28786 0.0859785
upperneck 19.0911 -5.40872 5.32924
head 6.65459 -2.64896 1.25834
rclavicle -2.78299e-015 8.18993e-014
rhumerus -33.2376 -6.70383 -85.1529
rradius 45.653
rwrist -7.14398
rhand -6.73326 -51.868
rfingers 7.12502
rthumb 19.1273 -80.9475
lclavicle -2.78299e-015 8.18993e-014
lhumerus -31.5162 6.74892 76.5146
lradius 28.8992
lwrist -2.52464
lhand -20.5079 -13.796
lfingers 7.12502
lthumb 5.84944 16.1033
rfemur -15.9841 9.392 18.5723
rtibia 10.2414
rfoot -16.1563 -10.244
rtoes -33.8814
lfemur -74.9156 -5.33099 -23.9875
ltibia 68.0487
lfoot -15.3016 0.0168518
ltoes -21.9106
